<svg version="1.1" xmlns="http://www.w3.org/2000/svg" xmlns:xlink="http://www.w3.org/1999/xlink" x="0px" y="0px" viewBox="0 0 460 100" xml:space="preserve"><path d="M0 0L0 100L25 100L25 0L0 0M75 0L75 100L100 100L100 0L75 0M110 0L110 100L135 100L135 0L110 0M145 0L145 100L170 100L170 0L145 0M205 0L205 100L230 100L230 0L205 0M240 0L240 100L265 100L265 0L240 0M400 0L400 100L425 100L425 0L400 0" fill="#eccc29" opacity="75%" /><path d="M12.5 0L50.5 100L87.5 0L12.5 0M145 50.5L195 12.5L195 87.5L145 50.5M365 25L460 25L412.5 0L365 25" fill="#40c81e" opacity="75%" /><circle cx="265" cy="25" r="25" fill="#3c9bdd" opacity="75%" /><circle cx="265" cy="75" r="25" fill="#3c9bdd" opacity="75%" /><circle cx="340" cy="50" r="50" fill="#3c9bdd" opacity="75%" /></svg>